<?xml version="1.0" encoding="utf-8"?>
<svg width="135" height="38" viewBox="0 0 135 38" fill="none" xmlns="http://www.w3.org/2000/svg" version="1.1">
<path d="M24.1642 19C23.48 19 22.8935 18.7559 22.4047 18.2676C21.9159 17.7793 21.6716 17.1934 21.6716 16.5098C21.6716 15.8066 21.9159 15.2109 22.4047 14.7227C22.8935 14.2344 23.48 13.9902 24.1642 13.9902C24.868 13.9902 25.4643 14.2344 25.9531 14.7227C26.4418 15.2109 26.6862 15.8066 26.6862 16.5098C26.6862 17.1934 26.4418 17.7793 25.9531 18.2676C25.4643 18.7559 24.868 19 24.1642 19ZM19.1789 12.3203C18.4751 12.3203 17.8788 12.0859 17.39 11.6172C16.9013 11.1289 16.6569 10.5332 16.6569 9.83008C16.6569 9.14648 16.9013 8.56055 17.39 8.07227C17.8788 7.58398 18.4751 7.33984 19.1789 7.33984C19.8631 7.33984 20.4497 7.58398 20.9384 8.07227C21.4272 8.56055 21.6716 9.14648 21.6716 9.83008C21.6716 10.5332 21.4272 11.1289 20.9384 11.6172C20.4497 12.0859 19.8631 12.3203 19.1789 12.3203ZM10.8211 12.3203C10.1369 12.3203 9.55034 12.0859 9.06158 11.6172C8.57283 11.1289 8.32845 10.5332 8.32845 9.83008C8.32845 9.14648 8.57283 8.56055 9.06158 8.07227C9.55034 7.58398 10.1369 7.33984 10.8211 7.33984C11.5249 7.33984 12.1212 7.58398 12.61 8.07227C13.0987 8.56055 13.3431 9.14648 13.3431 9.83008C13.3431 10.5332 13.0987 11.1289 12.61 11.6172C12.1212 12.0859 11.5249 12.3203 10.8211 12.3203ZM5.83578 19C5.13196 19 4.53568 18.7559 4.04692 18.2676C3.55816 17.7793 3.31378 17.1934 3.31378 16.5098C3.31378 15.8066 3.55816 15.2109 4.04692 14.7227C4.53568 14.2344 5.13196 13.9902 5.83578 13.9902C6.52004 13.9902 7.10655 14.2344 7.59531 14.7227C8.08407 15.2109 8.32845 15.8066 8.32845 16.5098C8.32845 17.1934 8.08407 17.7793 7.59531 18.2676C7.10655 18.7559 6.52004 19 5.83578 19ZM15.0147 4C12.9228 4 10.9677 4.39063 9.14956 5.17188C7.33138 5.95313 5.73803 7.02734 4.3695 8.39453C3.02053 9.74219 1.95503 11.334 1.17302 13.1699C0.391007 14.9863 0 16.9297 0 19C0 21.0703 0.391007 23.0137 1.17302 24.8301C1.95503 26.666 3.02053 28.2676 4.3695 29.6348C5.73803 30.9824 7.33138 32.0469 9.14956 32.8281C10.9677 33.6094 12.9228 34 15.0147 34C15.6989 34 16.2854 33.7559 16.7742 33.2676C17.263 32.7793 17.5073 32.1934 17.5073 31.5098C17.5073 31.1777 17.4487 30.8652 17.3314 30.5723C17.2141 30.2988 17.0577 30.0547 16.8622 29.8398C16.6667 29.6055 16.5103 29.3516 16.393 29.0781C16.2757 28.7852 16.217 28.4824 16.217 28.1699C16.217 27.4668 16.4614 26.8809 16.9501 26.4121C17.4389 25.9238 18.0254 25.6797 18.7097 25.6797H21.6716C22.825 25.6797 23.9101 25.4551 24.9267 25.0059C25.9433 24.5762 26.8231 23.9902 27.566 23.248C28.3284 22.4863 28.9247 21.5977 29.3548 20.582C29.7849 19.5664 30 18.4824 30 17.3301C30 15.4941 29.609 13.7656 28.827 12.1445C28.045 10.5234 26.9697 9.11719 25.6012 7.92578C24.2522 6.71484 22.6686 5.75781 20.8504 5.05469C19.0323 4.35156 17.0772 4 14.9853 4H15.0147Z" fill="white"/>
<path d="M112.573 13.778C111.889 8.078 106.797 5 101.667 5C93.1168 5 88.8608 11.726 88.8608 19.136C88.8608 26.546 93.1168 33.272 101.667 33.272C108.013 33.272 112.231 29.016 112.953 22.366H110.369C109.875 27.192 106.683 31.068 101.667 31.068C94.4848 31.068 91.4448 25.064 91.4448 19.136C91.4448 13.208 94.4848 7.204 101.667 7.204C105.619 7.204 109.077 9.598 109.989 13.778H112.573Z" fill="white"/>
<path d="M116.909 32.702H134.693V30.498H119.493V5.57H116.909V32.702Z" fill="white"/>
<path d="M53.9696 5.56976H59.2482C62.6556 5.56976 64.9569 5.72616 66.1523 6.03897C67.3588 6.35178 68.2749 6.86567 68.9005 7.58066C69.5262 8.29565 69.9172 9.09443 70.0736 9.97699C70.23 10.8484 70.3082 12.5688 70.3082 15.1383V24.6399C70.3082 27.0753 70.1909 28.7064 69.9563 29.5331C69.7328 30.3486 69.3362 30.991 68.7665 31.4602C68.1967 31.9182 67.4929 32.2422 66.655 32.4321C65.8171 32.6109 64.5547 32.7002 62.8678 32.7002H53.9696V5.56976ZM61.0245 10.2116V28.0584C62.0411 28.0584 62.6667 27.8573 62.9013 27.4551C63.1359 27.0418 63.2532 25.9302 63.2532 24.1204V13.5799C63.2532 12.351 63.2141 11.5634 63.1359 11.2171C63.0577 10.8707 62.879 10.6194 62.5997 10.463C62.3204 10.2954 61.7953 10.2116 61.0245 10.2116Z" fill="white"/>
</svg>
